0
SECTION
2
HEADER
9
$INSUNITS
70
4
0
ENDSEC
0
SECTION
2
TABLES
0
TABLE
2
LTYPE
0
LTYPE
72
65
70
0
2
CONTINUOUS
3
______
73
0
40
0
0
LTYPE
72
65
70
0
2
DASHED
3
_ _ _ 
73
2
40
7.5
49
5
49
-2.5
0
LTYPE
72
65
70
0
2
DOTTED
3
. . . 
73
2
40
1.5
49
0.5
49
-1
0
ENDTAB
0
TABLE
2
LAYER
0
ENDTAB
0
ENDSEC
0
SECTION
2
ENTITIES
0
POLYLINE
8
0
6
CONTINUOUS
66
1
70
1
0
VERTEX
8
0
10
7.7710812
20
-71.988644
42
0.4142136
0
VERTEX
8
0
10
7.9983732
20
-72.6582247
0
VERTEX
8
0
10
19.6577189
20
-78.4079777
42
0.4142136
0
VERTEX
8
0
10
20.3272996
20
-78.1806857
0
VERTEX
8
0
10
26.0770526
20
-66.52134
42
0.4142136
0
VERTEX
8
0
10
25.8497606
20
-65.8517593
0
VERTEX
8
0
10
14.1904149
20
-60.1020063
42
0.4142136
0
VERTEX
8
0
10
13.5208342
20
-60.3292983
0
SEQEND
0
POLYLINE
8
0
6
CONTINUOUS
66
1
70
1
0
VERTEX
8
0
10
-8.133584
20
-5.009472
42
0.4142136
0
VERTEX
8
0
10
-7.7407366
20
-5.5974099
0
VERTEX
8
0
10
5.009472
20
-8.133584
42
0.4142136
0
VERTEX
8
0
10
5.5974099
20
-7.7407366
0
VERTEX
8
0
10
8.133584
20
5.009472
42
0.4142136
0
VERTEX
8
0
10
7.7407366
20
5.5974099
0
VERTEX
8
0
10
-5.009472
20
8.133584
42
0.4142136
0
VERTEX
8
0
10
-5.5974099
20
7.7407366
0
SEQEND
0
POLYLINE
8
0
6
CONTINUOUS
66
1
70
1
0
VERTEX
8
0
10
9.6212579
20
-13.3969325
42
0.4142136
0
VERTEX
8
0
10
10.0141053
20
-13.9848704
0
VERTEX
8
0
10
22.7643139
20
-16.5210445
42
0.4142136
0
VERTEX
8
0
10
23.3522518
20
-16.1281971
0
VERTEX
8
0
10
25.8884259
20
-3.3779885
42
0.4142136
0
VERTEX
8
0
10
25.4955785
20
-2.7900506
0
VERTEX
8
0
10
12.7453699
20
-0.2538765
42
0.4142136
0
VERTEX
8
0
10
12.157432
20
-0.6467239
0
SEQEND
0
POLYLINE
8
0
6
CONTINUOUS
66
1
70
1
0
VERTEX
8
0
10
27.8406587
20
-19.4488981
42
0.4142136
0
VERTEX
8
0
10
28.2335061
20
-20.036836
0
VERTEX
8
0
10
40.9837147
20
-22.5730101
42
0.4142136
0
VERTEX
8
0
10
41.5716526
20
-22.1801627
0
VERTEX
8
0
10
44.1078267
20
-9.4299541
42
0.4142136
0
VERTEX
8
0
10
43.7149793
20
-8.8420162
0
VERTEX
8
0
10
30.9647707
20
-6.3058421
42
0.4142136
0
VERTEX
8
0
10
30.3768328
20
-6.6986895
0
SEQEND
0
POLYLINE
8
0
6
CONTINUOUS
66
1
70
1
0
VERTEX
8
0
10
44.2997792
20
-34.3503904
42
0.4142136
0
VERTEX
8
0
10
44.6926266
20
-34.9383283
0
VERTEX
8
0
10
57.4428352
20
-37.4745024
42
0.4142136
0
VERTEX
8
0
10
58.0307731
20
-37.081655
0
VERTEX
8
0
10
60.5669472
20
-24.3314464
42
0.4142136
0
VERTEX
8
0
10
60.1740998
20
-23.7435085
0
VERTEX
8
0
10
47.4238912
20
-21.2073344
42
0.4142136
0
VERTEX
8
0
10
46.8359533
20
-21.6001818
0
SEQEND
0
POLYLINE
8
0
6
CONTINUOUS
66
1
70
1
0
VERTEX
8
0
10
-11.8500546
20
-23.6934316
42
0.4142136
0
VERTEX
8
0
10
-11.4572072
20
-24.2813695
0
VERTEX
8
0
10
1.2930014
20
-26.8175436
42
0.4142136
0
VERTEX
8
0
10
1.8809393
20
-26.4246962
0
VERTEX
8
0
10
4.4171134
20
-13.6744876
42
0.4142136
0
VERTEX
8
0
10
4.024266
20
-13.0865497
0
VERTEX
8
0
10
-8.7259426
20
-10.5503756
42
0.4142136
0
VERTEX
8
0
10
-9.3138805
20
-10.943223
0
SEQEND
0
POLYLINE
8
0
6
CONTINUOUS
66
1
70
1
0
VERTEX
8
0
10
5.9047873
20
-32.0808921
42
0.4142136
0
VERTEX
8
0
10
6.2976347
20
-32.66883
0
VERTEX
8
0
10
19.0478433
20
-35.2050041
42
0.4142136
0
VERTEX
8
0
10
19.6357812
20
-34.8121567
0
VERTEX
8
0
10
22.1719553
20
-22.0619481
42
0.4142136
0
VERTEX
8
0
10
21.7791079
20
-21.4740102
0
VERTEX
8
0
10
9.0288993
20
-18.9378361
42
0.4142136
0
VERTEX
8
0
10
8.4409614
20
-19.3306835
0
SEQEND
0
POLYLINE
8
0
6
CONTINUOUS
66
1
70
1
0
VERTEX
8
0
10
24.1241881
20
-38.1328577
42
0.4142136
0
VERTEX
8
0
10
24.5170355
20
-38.7207956
0
VERTEX
8
0
10
37.2672441
20
-41.2569697
42
0.4142136
0
VERTEX
8
0
10
37.855182
20
-40.8641223
0
VERTEX
8
0
10
40.3913561
20
-28.1139137
42
0.4142136
0
VERTEX
8
0
10
39.9985087
20
-27.5259758
0
VERTEX
8
0
10
27.2483001
20
-24.9898017
42
0.4142136
0
VERTEX
8
0
10
26.6603622
20
-25.3826491
0
SEQEND
0
POLYLINE
8
0
6
CONTINUOUS
66
1
70
1
0
VERTEX
8
0
10
40.5833085
20
-53.03435
42
0.4142136
0
VERTEX
8
0
10
40.9761559
20
-53.6222879
0
VERTEX
8
0
10
53.7263645
20
-56.158462
42
0.4142136
0
VERTEX
8
0
10
54.3143024
20
-55.7656146
0
VERTEX
8
0
10
56.8504765
20
-43.015406
42
0.4142136
0
VERTEX
8
0
10
56.4576291
20
-42.4274681
0
VERTEX
8
0
10
43.7074205
20
-39.891294
42
0.4142136
0
VERTEX
8
0
10
43.1194826
20
-40.2841414
0
SEQEND
0
POLYLINE
8
0
6
CONTINUOUS
66
1
70
1
0
VERTEX
8
0
10
-15.5665253
20
-42.3773912
42
0.4142136
0
VERTEX
8
0
10
-15.1736779
20
-42.9653291
0
VERTEX
8
0
10
-2.4234693
20
-45.5015032
42
0.4142136
0
VERTEX
8
0
10
-1.8355314
20
-45.1086558
0
VERTEX
8
0
10
0.7006427
20
-32.3584472
42
0.4142136
0
VERTEX
8
0
10
0.3077953
20
-31.7705093
0
VERTEX
8
0
10
-12.4424133
20
-29.2343352
42
0.4142136
0
VERTEX
8
0
10
-13.0303512
20
-29.6271826
0
SEQEND
0
POLYLINE
8
0
6
CONTINUOUS
66
1
70
1
0
VERTEX
8
0
10
2.1883167
20
-50.7648517
42
0.4142136
0
VERTEX
8
0
10
2.5811641
20
-51.3527896
0
VERTEX
8
0
10
15.3313727
20
-53.8889637
42
0.4142136
0
VERTEX
8
0
10
15.9193106
20
-53.4961163
0
VERTEX
8
0
10
18.4554847
20
-40.7459077
42
0.4142136
0
VERTEX
8
0
10
18.0626373
20
-40.1579698
0
VERTEX
8
0
10
5.3124287
20
-37.6217957
42
0.4142136
0
VERTEX
8
0
10
4.7244908
20
-38.0146431
0
SEQEND
0
POLYLINE
8
0
6
CONTINUOUS
66
1
70
1
0
VERTEX
8
0
10
20.4077174
20
-56.8168173
42
0.4142136
0
VERTEX
8
0
10
20.8005648
20
-57.4047552
0
VERTEX
8
0
10
33.5507734
20
-59.9409293
42
0.4142136
0
VERTEX
8
0
10
34.1387113
20
-59.5480819
0
VERTEX
8
0
10
36.6748854
20
-46.7978733
42
0.4142136
0
VERTEX
8
0
10
36.282038
20
-46.2099354
0
VERTEX
8
0
10
23.5318294
20
-43.6737613
42
0.4142136
0
VERTEX
8
0
10
22.9438915
20
-44.0666087
0
SEQEND
0
POLYLINE
8
0
6
CONTINUOUS
66
1
70
1
0
VERTEX
8
0
10
-10.8701338
20
-67.590576
42
0.4142136
0
VERTEX
8
0
10
-10.4772864
20
-68.1785139
0
VERTEX
8
0
10
2.2729222
20
-70.714688
42
0.4142136
0
VERTEX
8
0
10
2.8608601
20
-70.3218406
0
VERTEX
8
0
10
5.3970342
20
-57.571632
42
0.4142136
0
VERTEX
8
0
10
5.0041868
20
-56.9836941
0
VERTEX
8
0
10
-7.7460218
20
-54.44752
42
0.4142136
0
VERTEX
8
0
10
-8.3339597
20
-54.8403674
0
SEQEND
0
POLYLINE
8
0
6
CONTINUOUS
66
1
70
1
0
VERTEX
8
0
10
24.6387998
20
-81.0615274
42
0.4142136
0
VERTEX
8
0
10
24.6850467
20
-81.7671202
0
VERTEX
8
0
10
34.4589643
20
-90.3386157
42
0.4142136
0
VERTEX
8
0
10
35.1645571
20
-90.2923688
0
VERTEX
8
0
10
43.7360526
20
-80.5184512
42
0.4142136
0
VERTEX
8
0
10
43.6898057
20
-79.8128584
0
VERTEX
8
0
10
33.9158881
20
-71.2413629
42
0.4142136
0
VERTEX
8
0
10
33.2102953
20
-71.2876098
0
SEQEND
0
POLYLINE
8
0
6
CONTINUOUS
66
1
70
1
0
VERTEX
8
0
10
-58.5497847
20
-17.0916103
42
0.4142136
0
VERTEX
8
0
10
-58.0497847
20
-17.5916103
0
VERTEX
8
0
10
-45.0497847
20
-17.5916103
42
0.4142136
0
VERTEX
8
0
10
-44.5497847
20
-17.0916103
0
VERTEX
8
0
10
-44.5497847
20
-4.0916103
42
0.4142136
0
VERTEX
8
0
10
-45.0497847
20
-3.5916103
0
VERTEX
8
0
10
-58.0497847
20
-3.5916103
42
0.4142136
0
VERTEX
8
0
10
-58.5497847
20
-4.0916103
0
SEQEND
0
POLYLINE
8
0
6
CONTINUOUS
66
1
70
1
0
VERTEX
8
0
10
-77.5997847
20
-18.1886998
42
0.4142136
0
VERTEX
8
0
10
-77.0997847
20
-18.6886998
0
VERTEX
8
0
10
-64.0997847
20
-18.6886998
42
0.4142136
0
VERTEX
8
0
10
-63.5997847
20
-18.1886998
0
VERTEX
8
0
10
-63.5997847
20
-5.1886998
42
0.4142136
0
VERTEX
8
0
10
-64.0997847
20
-4.6886998
0
VERTEX
8
0
10
-77.0997847
20
-4.6886998
42
0.4142136
0
VERTEX
8
0
10
-77.5997847
20
-5.1886998
0
SEQEND
0
POLYLINE
8
0
6
CONTINUOUS
66
1
70
1
0
VERTEX
8
0
10
-58.5497847
20
-36.1416103
42
0.4142136
0
VERTEX
8
0
10
-58.0497847
20
-36.6416103
0
VERTEX
8
0
10
-45.0497847
20
-36.6416103
42
0.4142136
0
VERTEX
8
0
10
-44.5497847
20
-36.1416103
0
VERTEX
8
0
10
-44.5497847
20
-23.1416103
42
0.4142136
0
VERTEX
8
0
10
-45.0497847
20
-22.6416103
0
VERTEX
8
0
10
-58.0497847
20
-22.6416103
42
0.4142136
0
VERTEX
8
0
10
-58.5497847
20
-23.1416103
0
SEQEND
0
POLYLINE
8
0
6
CONTINUOUS
66
1
70
1
0
VERTEX
8
0
10
-77.5997847
20
-37.2386998
42
0.4142136
0
VERTEX
8
0
10
-77.0997847
20
-37.7386998
0
VERTEX
8
0
10
-64.0997847
20
-37.7386998
42
0.4142136
0
VERTEX
8
0
10
-63.5997847
20
-37.2386998
0
VERTEX
8
0
10
-63.5997847
20
-24.2386998
42
0.4142136
0
VERTEX
8
0
10
-64.0997847
20
-23.7386998
0
VERTEX
8
0
10
-77.0997847
20
-23.7386998
42
0.4142136
0
VERTEX
8
0
10
-77.5997847
20
-24.2386998
0
SEQEND
0
POLYLINE
8
0
6
CONTINUOUS
66
1
70
1
0
VERTEX
8
0
10
-58.5497847
20
-55.1916103
42
0.4142136
0
VERTEX
8
0
10
-58.0497847
20
-55.6916103
0
VERTEX
8
0
10
-45.0497847
20
-55.6916103
42
0.4142136
0
VERTEX
8
0
10
-44.5497847
20
-55.1916103
0
VERTEX
8
0
10
-44.5497847
20
-42.1916103
42
0.4142136
0
VERTEX
8
0
10
-45.0497847
20
-41.6916103
0
VERTEX
8
0
10
-58.0497847
20
-41.6916103
42
0.4142136
0
VERTEX
8
0
10
-58.5497847
20
-42.1916103
0
SEQEND
0
POLYLINE
8
0
6
CONTINUOUS
66
1
70
1
0
VERTEX
8
0
10
-77.5997847
20
-56.2886998
42
0.4142136
0
VERTEX
8
0
10
-77.0997847
20
-56.7886998
0
VERTEX
8
0
10
-64.0997847
20
-56.7886998
42
0.4142136
0
VERTEX
8
0
10
-63.5997847
20
-56.2886998
0
VERTEX
8
0
10
-63.5997847
20
-43.2886998
42
0.4142136
0
VERTEX
8
0
10
-64.0997847
20
-42.7886998
0
VERTEX
8
0
10
-77.0997847
20
-42.7886998
42
0.4142136
0
VERTEX
8
0
10
-77.5997847
20
-43.2886998
0
SEQEND
0
POLYLINE
8
0
6
CONTINUOUS
66
1
70
1
0
VERTEX
8
0
10
-33.6012139
20
-5.6143021
42
0.4142136
0
VERTEX
8
0
10
-33.1222543
20
-6.1344921
0
VERTEX
8
0
10
-20.1333086
20
-6.6704878
42
0.4142136
0
VERTEX
8
0
10
-19.6131186
20
-6.1915282
0
VERTEX
8
0
10
-19.0771229
20
6.7974175
42
0.4142136
0
VERTEX
8
0
10
-19.5560825
20
7.3176075
0
VERTEX
8
0
10
-32.5450282
20
7.8536032
42
0.4142136
0
VERTEX
8
0
10
-33.0652182
20
7.3746436
0
SEQEND
0
POLYLINE
8
0
6
CONTINUOUS
66
1
70
1
0
VERTEX
8
0
10
-34.3866538
20
-24.6481032
42
0.4142136
0
VERTEX
8
0
10
-33.9076942
20
-25.1682932
0
VERTEX
8
0
10
-20.9187485
20
-25.7042889
42
0.4142136
0
VERTEX
8
0
10
-20.3985585
20
-25.2253293
0
VERTEX
8
0
10
-19.8625628
20
-12.2363836
42
0.4142136
0
VERTEX
8
0
10
-20.3415224
20
-11.7161936
0
VERTEX
8
0
10
-33.3304681
20
-11.1801979
42
0.4142136
0
VERTEX
8
0
10
-33.8506581
20
-11.6591575
0
SEQEND
0
POLYLINE
8
0
6
CONTINUOUS
66
1
70
1
0
VERTEX
8
0
10
-35.1720937
20
-43.6819043
42
0.4142136
0
VERTEX
8
0
10
-34.6931341
20
-44.2020943
0
VERTEX
8
0
10
-21.7041884
20
-44.73809
42
0.4142136
0
VERTEX
8
0
10
-21.1839984
20
-44.2591304
0
VERTEX
8
0
10
-20.6480027
20
-31.2701847
42
0.4142136
0
VERTEX
8
0
10
-21.1269623
20
-30.7499947
0
VERTEX
8
0
10
-34.115908
20
-30.213999
42
0.4142136
0
VERTEX
8
0
10
-34.636098
20
-30.6929586
0
SEQEND
0
POLYLINE
8
0
6
CONTINUOUS
66
1
70
0
0
VERTEX
8
0
10
50.3214
20
-103.1856457
42
-0.4142136
0
VERTEX
8
0
10
49.6278801
20
-103.047696
0
VERTEX
8
0
10
42.4054671
20
-92.2385911
0
VERTEX
8
0
10
49.6278801
20
-103.047696
0
SEQEND
0
POLYLINE
8
0
6
CONTINUOUS
66
1
70
1
0
VERTEX
8
0
10
50.3214001
20
-103.1856457
0
VERTEX
8
0
10
61.130505
20
-95.9632327
0
SEQEND
0
POLYLINE
8
0
6
CONTINUOUS
66
1
70
1
0
VERTEX
8
0
10
53.3525217
20
-84.3226581
0
VERTEX
8
0
10
42.5434168
20
-91.5450711
0
SEQEND
0
POLYLINE
8
0
6
CONTINUOUS
66
1
70
1
0
VERTEX
8
0
10
61.2684547
20
-95.2697127
0
VERTEX
8
0
10
54.0460417
20
-84.4606078
0
SEQEND
0
POLYLINE
8
0
6
CONTINUOUS
66
1
70
1
0
VERTEX
8
0
10
42.5434168
20
-91.5450711
42
0.4142136
0
VERTEX
8
0
10
42.4054671
20
-92.238591
42
-0.4142136
0
SEQEND
0
POLYLINE
8
0
6
CONTINUOUS
66
1
70
1
0
VERTEX
8
0
10
49.6278801
20
-103.047696
42
0.4142136
0
VERTEX
8
0
10
50.3214
20
-103.1856457
42
-0.4142136
0
SEQEND
0
POLYLINE
8
0
6
CONTINUOUS
66
1
70
1
0
VERTEX
8
0
10
61.130505
20
-95.9632327
42
0.4142136
0
VERTEX
8
0
10
61.2684547
20
-95.2697128
42
-0.4142136
0
SEQEND
0
POLYLINE
8
0
6
CONTINUOUS
66
1
70
1
0
VERTEX
8
0
10
54.0460417
20
-84.4606078
42
0.4142136
0
VERTEX
8
0
10
53.3525218
20
-84.3226581
42
-0.4142136
0
SEQEND
0
POLYLINE
8
outline
6
CONTINUOUS
66
1
70
1
0
VERTEX
8
outline
10
-79.5997847
20
-105.2699109
0
VERTEX
8
outline
10
63.3527199
20
-105.2699109
0
VERTEX
8
outline
10
63.3527199
20
10.1431914
0
VERTEX
8
outline
10
-79.5997847
20
10.1431914
0
SEQEND
0
ENDSEC
0
EOF