0
SECTION
2
HEADER
9
$INSUNITS
70
4
9
$ACADVER
1
AC1014
9
$HANDSEED
5
FFFF
0
ENDSEC
0
SECTION
2
TABLES
0
TABLE
2
VPORT
5
8
100
AcDbSymbolTable
0
ENDTAB
0
TABLE
2
LTYPE
5
5
100
AcDbSymbolTable
0
LTYPE
5
14
100
AcDbSymbolTableRecord
100
AcDbLinetypeTableRecord
2
BYBLOCK
70
0
0
LTYPE
5
15
100
AcDbSymbolTableRecord
100
AcDbLinetypeTableRecord
2
BYLAYER
70
0
0
LTYPE
5
16
100
AcDbSymbolTableRecord
100
AcDbLinetypeTableRecord
2
DASHED
70
0
3
Dashed __ __ __ __ __ __ __ __ __ __ __ __ __ _
72
65
73
2
40
0.75
49
0.5
74
0
49
-0.25
74
0
0
ENDTAB
0
TABLE
2
LAYER
5
2
100
AcDbSymbolTable
70
2
0
LAYER
5
50
100
AcDbSymbolTableRecord
100
AcDbLayerTableRecord
2
0
70
0
62
7
6
CONTINUOUS
0
ENDTAB
0
TABLE
2
STYLE
5
3
100
AcDbSymbolTable
70
1
0
STYLE
5
11
100
AcDbSymbolTableRecord
100
AcDbTextStyleTableRecord
2
STANDARD
70
0
0
ENDTAB
0
TABLE
2
VIEW
5
6
100
AcDbSymbolTable
70
0
0
ENDTAB
0
TABLE
2
UCS
5
7
100
AcDbSymbolTable
70
0
0
ENDTAB
0
TABLE
2
APPID
5
9
100
AcDbSymbolTable
70
2
0
APPID
5
12
100
AcDbSymbolTableRecord
100
AcDbRegAppTableRecord
2
ACAD
70
0
0
ENDTAB
0
TABLE
2
DIMSTYLE
5
A
100
AcDbSymbolTable
70
1
0
ENDTAB
0
TABLE
2
BLOCK_RECORD
5
1
100
AcDbSymbolTable
70
1
0
BLOCK_RECORD
5
1F
100
AcDbSymbolTableRecord
100
AcDbBlockTableRecord
2
*MODEL_SPACE
0
BLOCK_RECORD
5
1B
100
AcDbSymbolTableRecord
100
AcDbBlockTableRecord
2
*PAPER_SPACE
0
ENDTAB
0
ENDSEC
0
SECTION
2
BLOCKS
0
BLOCK
5
20
100
AcDbEntity
100
AcDbBlockBegin
2
*MODEL_SPACE
0
ENDBLK
5
21
100
AcDbEntity
100
AcDbBlockEnd
0
BLOCK
5
1C
100
AcDbEntity
100
AcDbBlockBegin
2
*PAPER_SPACE
0
ENDBLK
5
1D
100
AcDbEntity
100
AcDbBlockEnd
0
ENDSEC
0
SECTION
2
ENTITIES
0
LWPOLYLINE
5
100
100
AcDbEntity
8
0
100
AcDbPolyline
90
8
70
1
43
0.0
10
-115.25205365654131
20
425.17519243660325
10
-117.78822784275098
20
412.42498379136129
42
-0.41421356237307871
10
-118.37616564396066
20
412.03213631216772
10
-131.12637428920263
20
414.56831049837729
42
-0.41421356237309098
10
-131.51922176839619
20
415.15624829958705
10
-128.98304758218652
20
427.90645694482907
42
-0.41421356237309503
10
-128.39510978097687
20
428.29930442402258
10
-115.64490113573487
20
425.76313023781296
42
-0.41421356237309098
0
LWPOLYLINE
5
101
100
AcDbEntity
8
0
100
AcDbPolyline
90
10
70
1
43
0.0
10
-125.66425573540739
20
477.43674215382754
42
0.3592748877522714
10
-126.29242704966394
20
477.33471004213879
10
-134.86392263636685
20
467.56079259316448
42
0.4142135623730569
10
-134.81767564166407
20
466.85519978410002
10
-125.04375819268974
20
458.28370419739713
10
-124.92566126746367
20
458.20659473795723
42
0.33354641959403586
10
-124.33816538362527
20
458.32995119209988
10
-115.76666979692243
20
468.10386864107414
42
0.41421356237308132
10
-115.81291679162517
20
468.80946145013866
10
-125.58683424059942
20
477.38095703684155
0
LWPOLYLINE
5
102
100
AcDbEntity
8
0
100
AcDbPolyline
90
9
70
1
43
0.0
10
-102.59636582211985
20
406.46543752734476
10
-112.90697352682201
20
408.51634491500994
42
-0.41421356237320728
10
-113.29982100601561
20
409.1042827162197
10
-110.763646819806
20
421.85449136146161
42
-0.41421356237305634
10
-110.17570901859628
20
422.24733884065517
10
-97.425500373354325
20
419.71116465444544
42
-0.4142135623730725
10
-97.032652894160748
20
419.12322685323591
10
-99.568827080370454
20
406.37301820799388
42
-0.35700275778619356
10
-100.05779569731288
20
405.9705653968482
0
LWPOLYLINE
5
103
100
AcDbEntity
8
0
100
AcDbPolyline
90
8
70
1
43
0.0
10
-78.685452314093169
20
416.27666978815421
10
-91.43566095933511
20
418.81284397436394
42
-0.41421356237306028
10
-91.828508438528686
20
419.40078177557353
10
-89.29233425231898
20
432.15099042081556
42
-0.41421356237321538
10
-88.704396451109375
20
432.54383790000907
10
-75.95418780586742
20
430.00766371379933
42
-0.41421356237307155
10
-75.561340326673843
20
429.41972591258974
10
-78.097514512883421
20
416.66951726734783
42
-0.41421356237310225
0
LWPOLYLINE
5
104
100
AcDbEntity
8
0
100
AcDbPolyline
90
9
70
1
43
0.0
10
-38.941778974410333
20
392.65691169993022
10
-51.938685326449097
20
392.94050520537957
42
-0.41421356237318957
10
-52.427658897471744
20
393.45129366143675
10
-52.144065392022476
20
406.44820001347546
42
-0.41421356237317802
10
-51.633276935965249
20
406.93717358449817
10
-38.636370583926492
20
406.65358007904888
42
-0.41421356237310847
10
-38.147397012903809
20
406.14279162299164
10
-38.430990518353092
20
393.14588527095287
42
-0.31262902647012214
10
-38.765556991271175
20
392.68491232326625
0
LWPOLYLINE
5
105
100
AcDbEntity
8
0
100
AcDbPolyline
90
8
70
1
43
0.0
10
-38.110631854593578
20
430.74784493167454
10
-51.107538206632341
20
431.03143843712394
42
-0.41421356237318946
10
-51.596511777654996
20
431.54222689318112
10
-51.312918272205756
20
444.53913324521983
42
-0.41421356237301665
10
-50.802129816148522
20
445.02810681624254
10
-37.80522346410973
20
444.7445133107932
42
-0.41421356237310575
10
-37.316249893087047
20
444.23372485473601
10
-37.599843398536393
20
431.23681850269719
42
-0.41421356237318957
0
LWPOLYLINE
5
106
100
AcDbEntity
8
0
100
AcDbPolyline
90
8
70
1
43
0.0
10
-38.526205414501952
20
411.70237831580238
10
-51.523111766540723
20
411.98597182125178
42
-0.41421356237318946
10
-52.01208533756337
20
412.49676027730891
10
-51.728491832114109
20
425.49366662934767
42
-0.41421356237316798
10
-51.217703376056896
20
425.98264020037038
10
-38.220797024018097
20
425.69904669492098
42
-0.41421356237310603
10
-37.731823452995428
20
425.1882582388638
10
-38.01541695844471
20
412.19135188682509
42
-0.41421356237302215
0
LWPOLYLINE
5
107
100
AcDbEntity
8
0
100
AcDbPolyline
90
10
70
1
43
0.0
10
-63.660064942118417
20
380.49406760765152
42
0.19891236737951093
10
-63.290334838533362
20
380.59279075544225
10
-63.173315442543299
20
380.72007816730695
42
0.1099004137559802
10
-63.0987039823424
20
380.92403722615882
10
-61.390616545849355
20
393.81133474384239
42
0.41421356237308915
10
-61.820586164356683
20
394.37269570361849
10
-74.707883682040233
20
396.08078314011158
42
0.41421356237302598
10
-75.2692446418163
20
395.65081352160428
10
-76.977332078309374
20
382.7635160039207
42
0.41421356237308682
10
-76.547362459802002
20
382.20215504414466
0
LWPOLYLINE
5
108
100
AcDbEntity
8
0
100
AcDbPolyline
90
8
70
1
43
0.0
10
-95.544979072935888
20
400.71682218389208
10
-93.008804886726253
20
413.46703082913399
42
-0.41421356237317053
10
-92.420867085516605
20
413.85987830832755
10
-79.670658440274622
20
411.32370412211793
42
-0.41421356237309709
10
-79.277810961081059
20
410.73576632090828
10
-81.813985147290737
20
397.98555767566631
42
-0.41421356237317053
10
-82.401922948500385
20
397.59271019647281
10
-95.15213159374234
20
400.12888438268243
42
-0.41421356237310525
0
LWPOLYLINE
5
109
100
AcDbEntity
8
0
100
AcDbPolyline
90
8
70
1
43
0.0
10
-96.44029424717283
20
424.66413032048183
10
-109.1905028924148
20
427.2003045066914
42
-0.41421356237309098
10
-109.58335037160836
20
427.78824230790116
10
-107.04717618539873
20
440.53845095314307
42
-0.41421356237317053
10
-106.45923838418908
20
440.93129843233663
10
-93.709029738947095
20
438.39512424612701
42
-0.41421356237309304
10
-93.316182259753546
20
437.80718644491736
10
-95.852356445963153
20
425.05697779967534
42
-0.41421356237311141
0
LWPOLYLINE
5
110
100
AcDbEntity
8
0
100
AcDbPolyline
90
9
70
1
43
0.0
10
-133.61542141448871
20
478.63073406769513
10
-144.61393419851794
20
471.30197866512219
42
-0.32982871625071025
10
-145.17390206035063
20
471.5029386296701
10
-152.39631504605808
20
482.31204352443001
42
-0.375735115164613
10
-152.31109322062892
20
482.96501018349227
10
-152.2583653527463
20
483.00556346554316
10
-141.44926045798636
20
490.22797645125075
42
-0.41421364521583892
10
-140.75574051687335
20
490.09002675793897
10
-133.53332753116567
20
479.28092186317906
42
-0.37334962057485682
0
LWPOLYLINE
5
111
100
AcDbEntity
8
0
100
AcDbPolyline
90
8
70
1
43
0.0
10
-135.23569240280338
20
396.47228870790565
10
-132.69951821659373
20
409.22249735314756
42
-0.41421356237317253
10
-132.11158041538408
20
409.61534483234112
10
-119.36137177014216
20
407.07917064613139
42
-0.41421356237305829
10
-118.96852429094857
20
406.4912328449218
10
-121.50469847715817
20
393.74102419967983
42
-0.41421356237310525
10
-122.09263627836783
20
393.34817672048632
10
-134.84284492360982
20
395.88435090669589
42
-0.41421356237309914
0
LWPOLYLINE
5
112
100
AcDbEntity
8
0
100
AcDbPolyline
90
8
70
1
43
0.0
10
-131.75656484717308
20
439.33590699911076
10
-134.29273903338273
20
426.58569835386885
42
-0.41421356237311141
10
-134.88067683459241
20
426.19285087467529
10
-147.63088547983438
20
428.72902506088502
42
-0.41421356237310525
10
-148.02373295902791
20
429.31696286209467
10
-145.48755877281823
20
442.06717150733658
42
-0.41421356237317053
10
-144.89962097160858
20
442.46001898653014
10
-132.14941232636664
20
439.92384480032035
42
-0.41421356237305007
0
LWPOLYLINE
5
113
100
AcDbEntity
8
0
100
AcDbPolyline
90
9
70
1
43
0.0
10
-98.898943368950654
20
459.03096954856903
42
0.41421356237303475
10
-99.126235410797307
20
459.70055023127009
10
-110.78558110517892
20
465.45030322888414
42
0.41421356237303453
10
-111.45516178788003
20
465.22301118703746
10
-117.20491478549414
20
453.5636654926559
42
0.41421356237311369
10
-116.9776227436474
20
452.89408480995473
10
-105.31827704926577
20
447.14433181234062
10
-105.19467790159771
20
447.10237555564674
42
0.33945427784934395
10
-104.64869636656476
20
447.37162385418736
0
LWPOLYLINE
5
114
100
AcDbEntity
8
0
100
AcDbPolyline
90
8
70
1
43
0.0
10
-103.87323551598726
20
387.29621113711886
10
-116.62344416122923
20
389.83238532332854
42
-0.41421356237310114
10
-117.01629164042281
20
390.42032312453819
10
-114.48011745421309
20
403.17053176978015
42
-0.41421356237300522
10
-113.89217965300348
20
403.56337924897366
10
-101.14197100776153
20
401.02720506276393
42
-0.41421356237306028
10
-100.74912352856796
20
400.43926726155433
10
-103.28529771477758
20
387.68905861631242
42
-0.41421356237311546
0
LWPOLYLINE
5
115
100
AcDbEntity
8
0
100
AcDbPolyline
90
8
70
1
43
0.0
10
-58.654054839781075
20
418.26376264024731
10
-71.54135235746466
20
419.97185007674034
42
-0.41421356237309365
10
-71.971321975972003
20
420.53321103651638
10
-70.263234539478972
20
433.4205085541999
42
-0.41421356237314083
10
-69.701873579702891
20
433.85047817270731
10
-56.814576062019349
20
432.14239073621428
42
-0.41421356237308715
10
-56.384606443511991
20
431.58102977643813
10
-58.092693880005051
20
418.69373225875461
42
-0.41421356237314799
0
LWPOLYLINE
5
116
100
AcDbEntity
8
0
100
AcDbPolyline
90
8
70
1
43
0.0
10
-19.872378719229161
20
393.33820130079641
10
-32.869285071267939
20
393.62179480624576
42
-0.4142135623731818
10
-33.358258642290565
20
394.13258326230289
10
-33.074665136841361
20
407.12948961434171
42
-0.41421356237306861
10
-32.563876680784105
20
407.61846318536436
10
-19.566970328745295
20
407.33486967991496
42
-0.41421356237318829
10
-19.077996757722651
20
406.82408122385777
10
-19.361590263171905
20
393.82717487181912
42
-0.41421356237302842
0
LWPOLYLINE
5
117
100
AcDbEntity
8
0
100
AcDbPolyline
90
9
70
1
43
0.0
10
-19.041231599412384
20
431.42913453254073
10
-32.038137951451176
20
431.71272803799008
42
-0.41421356237318591
10
-32.527111522473831
20
432.2235164940472
10
-32.243518017024449
20
445.22042284608597
42
-0.31262902647025348
10
-31.90895154410644
20
445.68139579377259
10
-31.732729560967318
20
445.70939641710874
10
-18.735823208928522
20
445.42580291165939
42
-0.41421356237318607
10
-18.246849637905886
20
444.91501445560226
10
-18.530443143355154
20
431.91810810356344
42
-0.41421356237301399
0
LWPOLYLINE
5
118
100
AcDbEntity
8
0
100
AcDbPolyline
90
8
70
1
43
0.0
10
-19.456805159320755
20
412.38366791666857
10
-32.45371151135955
20
412.66726142211792
42
-0.4142135623731843
10
-32.942685082382191
20
413.1780498781751
10
-32.659091576932973
20
426.17495623021387
42
-0.41421356237311296
10
-32.148303120875717
20
426.66392980123652
10
-19.151396768836918
20
426.38033629578717
42
-0.41421356237318829
10
-18.662423197814274
20
425.86954783972999
10
-18.946016703263457
20
412.87264148769123
42
-0.41421356237313539
0
LWPOLYLINE
5
119
100
AcDbEntity
8
0
100
AcDbPolyline
90
8
70
1
43
0.0
10
-61.157059890949753
20
399.37891512394947
10
-74.044357408633331
20
401.08700256044244
42
-0.41421356237308132
10
-74.474327027140674
20
401.6483635202186
10
-72.766239590647587
20
414.53566103790206
42
-0.41421356237314422
10
-72.204878630871562
20
414.96563065640942
10
-59.317581113187991
20
413.25754321991639
42
-0.41421356237309503
10
-58.887611494680662
20
412.69618226014029
10
-60.595698931173764
20
399.80888474245671
42
-0.41421356237316415
0
LWPOLYLINE
5
120
100
AcDbEntity
8
0
100
AcDbPolyline
90
8
70
1
43
0.0
10
-86.118393582907657
20
378.90875060479129
10
-98.868602228149584
20
381.44492479100097
42
-0.41421356237304607
10
-99.261449707343147
20
382.03286259221056
10
-96.725275521133497
20
394.78307123745253
42
-0.41421356237305834
10
-96.137337719923778
20
395.17591871664604
10
-83.387129074681837
20
392.63974453043647
42
-0.41421356237298285
10
-82.99428159548826
20
392.05180672922677
10
-85.530455781697981
20
379.30159808398486
42
-0.41421356237311546
0
LWPOLYLINE
5
121
100
AcDbEntity
8
0
100
AcDbPolyline
90
9
70
1
43
0.0
10
-80.257731829505531
20
454.63291071939523
10
-82.79390601571528
20
441.88270207415326
42
-0.41421356237326029
10
-83.381843816924885
20
441.4898545949597
10
-96.132052462166854
20
444.02602878116937
10
-96.25565164383525
20
444.06798504940468
42
-0.33945426037607368
10
-96.524899941360445
20
444.61396658237902
10
-93.988725755150767
20
457.36417522762099
42
-0.41421356237310525
10
-93.400787953941091
20
457.7570227068145
10
-80.650579308699108
20
455.22084852060487
42
-0.41421356237304607
0
LWPOLYLINE
5
122
100
AcDbEntity
8
0
100
AcDbPolyline
90
8
70
1
43
0.0
10
-114.65969500955345
20
430.71609590384918
10
-127.40990365479541
20
433.25227009005886
42
-0.41421356237303586
10
-127.80275113398898
20
433.84020789126851
10
-125.26657694777926
20
446.59041653651053
42
-0.41421356237317664
10
-124.67863914656959
20
446.98326401570404
10
-111.92843050132768
20
444.44708982949436
42
-0.41421356237305418
10
-111.53558302213411
20
443.85915202828471
10
-114.07175720834368
20
431.10894338304274
42
-0.4142135623731073
0
LWPOLYLINE
5
123
100
AcDbEntity
8
0
100
AcDbPolyline
90
10
70
1
43
0.0
10
-151.74020359343513
20
410.6330032704131
10
-149.20402940722551
20
423.38321191565512
42
-0.36138920762700272
10
-148.70729061373237
20
423.78562647936326
10
-148.6160916060158
20
423.77605939484863
10
-135.86588296077386
20
421.23988520863895
42
-0.41421356237311335
10
-135.4730354815803
20
420.6519474074293
10
-138.00920966778995
20
407.90173876218739
42
-0.35700275778618651
10
-138.49817828473243
20
407.49928595104177
10
-141.03674840953943
20
407.99415808153822
10
-151.34735611424156
20
410.04506546920339
42
-0.41421356237309098
0
LWPOLYLINE
5
124
100
AcDbEntity
8
0
100
AcDbPolyline
90
8
70
1
43
0.0
10
-294.39111322873367
20
421.10936495600805
42
0.41421356237301199
10
-294.92274425496805
20
421.57559285301232
10
-307.89491025706985
20
420.72535217302027
42
0.41421356237313661
10
-308.36113815407401
20
420.19372114678595
10
-307.51089747408218
20
407.2215551446842
42
0.41421356237315732
10
-306.97926644784792
20
406.75532724767999
10
-294.00710044574606
20
407.60556792767181
42
0.41421356237300927
10
-293.54087254874185
20
408.13719895390619
0
LWPOLYLINE
5
125
100
AcDbEntity
8
0
100
AcDbPolyline
90
8
70
1
43
0.0
10
-272.89540725383836
20
411.07944262656395
42
0.41421356237315293
10
-273.47498893371301
20
411.4845167881117
10
-286.27551487220484
20
409.21591904986082
42
0.4142135623730131
10
-286.6805890337526
20
408.63633736998611
10
-284.41199129550165
20
395.83581143149422
42
0.4142135623730987
10
-283.83240961562694
20
395.43073726994658
10
-271.03188367713517
20
397.69933500819741
42
0.4142135623730131
10
-270.62680951558741
20
398.27891668807212
0
LWPOLYLINE
5
126
100
AcDbEntity
8
0
100
AcDbPolyline
90
9
70
1
43
0.0
10
-235.25340803177059
20
420.04873067018252
42
0.41421356237298407
10
-235.85792201284033
20
420.41555875892607
10
-248.48536892041264
20
417.32564215868592
42
0.41421356237299395
10
-248.85219700915621
20
416.72112817761615
10
-245.76228040891593
20
404.0936812700437
42
0.35700275778621465
10
-245.25622243668454
20
403.71294001631009
10
-242.74165448729181
20
404.31807201182096
10
-232.53031952027388
20
406.81676978154036
42
0.41421356237322127
10
-232.16349143153025
20
407.42128376261013
0
LWPOLYLINE
5
127
100
AcDbEntity
8
0
100
AcDbPolyline
90
9
70
1
43
0.0
10
-196.81921923940138
20
423.27675358444759
42
0.41421356237304968
10
-197.42373322047112
20
423.64358167319108
10
-210.05118012804346
20
420.55366507295099
42
0.41421356237306989
10
-210.41800821678706
20
419.94915109188122
10
-207.32809161654686
20
407.32170418430883
42
0.35700275778629359
10
-206.82203364431541
20
406.9409629305751
10
-204.3074656949226
20
407.54609492608608
10
-194.09613072790472
20
410.04479269580543
42
0.41421356237308471
10
-193.72930263916115
20
410.64930667687526
0
LWPOLYLINE
5
128
100
AcDbEntity
8
0
100
AcDbPolyline
90
9
70
1
43
0.0
10
-250.71653379695417
20
441.60825217276681
10
-250.83818523287232
20
441.56094451701881
10
-263.46563214044471
20
438.47102791677867
42
-0.41421356237304469
10
-264.07014612151437
20
438.83785600552216
10
-267.16006272175457
20
451.46530291309443
42
-0.41421356237306989
10
-266.79323463301114
20
452.06981689416409
10
-254.16578772543875
20
455.15973349440446
42
-0.41421356237304968
10
-253.56127374436903
20
454.79290540566092
10
-250.47135714412883
20
442.16545849808853
42
-0.3394542603760386
0
LWPOLYLINE
5
129
100
AcDbEntity
8
0
100
AcDbPolyline
90
9
70
1
43
0.0
10
-196.29748626758243
20
482.26473212220191
42
0.3757351151644634
10
-196.41110898635563
20
482.91335997787496
10
-196.46555557831033
20
482.95157470489301
10
-207.57940983004798
20
489.69562702031681
42
0.41421364521593168
10
-208.26625241273902
20
489.5275577095889
10
-215.01030472816271
20
478.41370345785117
42
0.37334962057494747
10
-214.89992818671476
20
477.76771538197585
10
-203.59220772897436
20
470.92568372019616
42
0.3298287162505214
10
-203.04153858300612
20
471.15087787046429
0
LWPOLYLINE
5
130
100
AcDbEntity
8
0
100
AcDbPolyline
90
8
70
1
43
0.0
10
-239.78132428058413
20
438.55279710012508
42
0.41421356237305462
10
-240.38583826165382
20
438.91962518886857
10
-253.01328516922624
20
435.82970858862842
42
0.41421356237288298
10
-253.3801132579697
20
435.22519460755865
10
-250.29019665772952
20
422.59774769998626
42
0.41421356237299889
10
-249.68568267665975
20
422.23091961124283
10
-237.05823576908753
20
425.32083621148297
42
0.41421356237305995
10
-236.69140768034393
20
425.9253501925528
0
LWPOLYLINE
5
131
100
AcDbEntity
8
0
100
AcDbPolyline
90
8
70
1
43
0.0
10
-214.592242621433
20
413.6576943340969
42
0.41421356237304963
10
-214.22541453268946
20
414.26220831516667
10
-217.31533113292971
20
426.8896552227389
42
0.41421356237307527
10
-217.91984511399934
20
427.2564833114825
10
-230.54729202157174
20
424.1665667112423
42
0.41421356237317586
10
-230.91412011031534
20
423.56205273017252
10
-227.82420351007511
20
410.93460582260025
42
0.41421356237321139
10
-227.21968952900528
20
410.56777773385659
0
LWPOLYLINE
5
132
100
AcDbEntity
8
0
100
AcDbPolyline
90
8
70
1
43
0.0
10
-252.6254953995097
20
410.89479781388332
42
0.41421356237326667
10
-253.23000938057947
20
411.26162590262686
10
-265.85745628815181
20
408.1717093023866
42
0.41421356237308515
10
-266.22428437689541
20
407.56719532131689
10
-263.13436777665515
20
394.9397484137445
42
0.41421356237298407
10
-262.52985379558544
20
394.57292032500101
10
-249.90240688801316
20
397.66283692524121
42
0.41421356237317586
10
-249.53557879926956
20
398.26735090631098
0
LWPOLYLINE
5
133
100
AcDbEntity
8
0
100
AcDbPolyline
90
8
70
1
43
0.0
10
-257.15341164832336
20
429.39886424382593
42
0.41421356237305462
10
-257.75792562939307
20
429.76569233256942
10
-270.38537253696535
20
426.67577573232916
42
0.41421356237324147
10
-270.75220062570895
20
426.0712617512595
10
-267.66228402546869
20
413.44381484368711
42
0.41421356237298407
10
-267.05777004439898
20
413.07698675494356
10
-254.43032313682664
20
416.16690335518376
42
0.41421356237300433
10
-254.0634950480831
20
416.77141733625353
0
LWPOLYLINE
5
134
100
AcDbEntity
8
0
100
AcDbPolyline
90
9
70
1
43
0.0
10
-305.73333683601368
20
387.74611475998461
10
-305.91061246490824
20
387.76640203798695
42
-0.31262902647006163
10
-306.26496786224789
20
388.21234265698888
10
-307.11520854223988
20
401.18450865909068
42
-0.41421356237322371
10
-306.64898064523572
20
401.71613968532489
10
-293.67681464313387
20
402.56638036531695
42
-0.41421356237303408
10
-293.14518361689943
20
402.10015246831261
10
-292.2949429369076
20
389.12798646621081
42
-0.41421356237315732
10
-292.76117083391176
20
388.59635543997649
0
LWPOLYLINE
5
135
100
AcDbEntity
8
0
100
AcDbPolyline
90
9
70
1
43
0.0
10
-314.71801068714745
20
439.96742305127549
42
0.31262902647029722
10
-315.07236608448727
20
440.41336367027753
10
-315.24964171338189
20
440.43365094827971
10
-328.22180771548352
20
439.58341026828793
42
0.41421356237313661
10
-328.68803561248768
20
439.0517792420535
10
-327.83779493249591
20
426.07961323995164
42
0.41421356237313933
10
-327.30616390626165
20
425.61338534294748
10
-314.33399790415984
20
426.46362602293925
42
0.4142135623731808
10
-313.86777000715557
20
426.99525704917369
0
LWPOLYLINE
5
136
100
AcDbEntity
8
0
100
AcDbPolyline
90
8
70
1
43
0.0
10
-295.6370428405678
20
440.11857744370332
42
0.4142135623730106
10
-296.16867386680224
20
440.58480534070753
10
-309.14083986890387
20
439.73456466071553
42
0.4142135623731768
10
-309.6070677659082
20
439.20293363448133
10
-308.75682708591648
20
426.23076763237947
42
0.41421356237309637
10
-308.22519605968216
20
425.76453973537525
10
-295.2530300575803
20
426.61478041536725
42
0.41421356237313384
10
-294.78680216057609
20
427.14641144160157
0
LWPOLYLINE
5
137
100
AcDbEntity
8
0
100
AcDbPolyline
90
10
70
1
43
0.0
10
-280.88172583717511
20
376.75554527546922
10
-281.0041860555545
20
376.87760722355955
42
-0.10990041375592333
10
-281.08762307137249
20
377.07811765239654
10
-283.35622080962344
20
389.87864359088837
42
-0.4142135623731879
10
-282.95114664807562
20
390.45822527076319
10
-270.15062070958385
20
392.72682300901408
42
-0.41421356237315649
10
-269.57103902970914
20
392.32174884746632
10
-267.30244129145819
20
379.52122290897449
42
-0.4142135623730987
10
-267.7075154530059
20
378.94164122909979
10
-280.50804139149773
20
376.67304349084878
42
-0.1989123673796287
0
LWPOLYLINE
5
138
100
AcDbEntity
8
0
100
AcDbPolyline
90
8
70
1
43
0.0
10
-230.72549178295705
20
401.54466424024002
42
0.41421356237312018
10
-231.33000576402668
20
401.91149232898351
10
-243.95745267159913
20
398.82157572874326
42
0.41421356237300433
10
-244.32428076034259
20
398.2170617476736
10
-241.23436416010242
20
385.58961484010121
42
0.41421356237304968
10
-240.6298501790327
20
385.22278675135766
10
-228.00240327146031
20
388.31270335159786
42
0.41421356237299395
10
-227.63557518271676
20
388.91721733266763
0
LWPOLYLINE
5
139
100
AcDbEntity
8
0
100
AcDbPolyline
90
8
70
1
43
0.0
10
-198.62404697671838
20
428.54885912574798
42
0.41421356237322127
10
-198.25721888797474
20
429.15337310681775
10
-201.34713548821495
20
441.78082001439014
42
0.41421356237304968
10
-201.95164946928469
20
442.14764810313369
10
-214.579096376857
20
439.05773150289349
42
0.41421356237299395
10
-214.94592446560057
20
438.45321752182372
10
-211.85600786536031
20
425.82577061425138
42
0.41421356237304469
10
-211.25149388429062
20
425.45894252550789
0
LWPOLYLINE
5
140
100
AcDbEntity
8
0
100
AcDbPolyline
90
9
70
1
43
0.0
10
-241.79672236391878
20
445.0769771033535
10
-241.91837376637261
20
445.02966946061912
42
-0.33945427784927568
10
-242.4755800937952
20
445.2748461143691
10
-248.72843411686605
20
456.67229399189102
42
-0.41421356237307683
10
-248.53056510585048
20
457.35115172176756
10
-237.13311722832844
20
463.60400574483845
42
-0.41421356237299201
10
-236.45425949845205
20
463.4061367338229
10
-230.20140547538108
20
452.00868885630081
42
-0.41421356237292728
10
-230.39927448639673
20
451.32983112642432
0
LWPOLYLINE
5
141
100
AcDbEntity
8
0
100
AcDbPolyline
90
10
70
1
43
0.0
10
-213.18517664781612
20
466.05583039062077
10
-222.57590810680514
20
457.06616067714486
10
-222.69052916254566
20
456.98397329329623
42
-0.33354641959411135
10
-223.28284661343832
20
457.08158612889548
10
-232.27251632691431
20
466.47231758788428
42
-0.414213562373065
10
-232.25709087516378
20
467.1792560945176
10
-222.86635941617482
20
476.16892580799345
10
-222.79144492210162
20
476.22803490808155
42
-0.35927488775230471
10
-222.1594209095415
20
476.15350035624306
10
-213.16975119606556
20
466.76276889725398
42
-0.41421356237306434
0
LWPOLYLINE
5
142
100
AcDbEntity
8
0
100
AcDbPolyline
90
8
70
1
43
0.0
10
-221.84324738174328
20
445.39372165268151
42
0.41421356237305462
10
-222.447761362813
20
445.76054974142494
10
-235.07520827038536
20
442.67063314118491
42
0.41421356237299889
10
-235.44203635912891
20
442.06611916011514
10
-232.35211975888865
20
429.43867225254274
42
0.41421356237318085
10
-231.74760577781893
20
429.0718441637992
10
-219.1201588702466
20
432.16176076403934
42
0.41421356237315077
10
-218.75333078150305
20
432.76627474510917
0
LWPOLYLINE
5
143
100
AcDbEntity
8
0
100
AcDbPolyline
90
8
70
1
43
0.0
10
-212.78741488411609
20
408.3855887927964
10
-209.69749828387597
20
395.75814188522401
42
-0.41421356237315571
10
-210.06432637261946
20
395.1536279041544
10
-222.6917732801918
20
392.06371130391409
42
-0.41421356237326667
10
-223.29628726126157
20
392.43053939265764
10
-226.38620386150171
20
405.05798630022991
42
-0.41421356237317586
10
-226.01937577275817
20
405.66250028129969
10
-213.39192886518578
20
408.75241688154
42
-0.41421356237314538
0
LWPOLYLINE
5
144
100
AcDbEntity
8
0
100
AcDbPolyline
90
8
70
1
43
0.0
10
-248.09757915069625
20
392.39073138394076
42
0.41421356237307488
10
-248.70209313176591
20
392.75755947268431
10
-261.32954003933821
20
389.66764287244405
42
0.41421356237312018
10
-261.69636812808176
20
389.06312889137433
10
-258.60645152784156
20
376.435681983802
42
0.41421356237309503
10
-258.00193754677184
20
376.06885389505851
10
-245.37449063919954
20
379.15877049529865
42
0.41421356237297913
10
-245.00766255045588
20
379.76328447636843
0
LWPOLYLINE
5
145
100
AcDbEntity
8
0
100
AcDbPolyline
90
8
70
1
43
0.0
10
-276.2197754779674
20
429.83713640566151
42
0.41421356237305407
10
-276.79935715784217
20
430.24221056720921
10
-289.599883096334
20
427.97361282895844
42
0.41421356237311552
10
-290.00495725788176
20
427.39403114908373
10
-287.73635951963092
20
414.59350521059184
42
0.41421356237309503
10
-287.15677783975616
20
414.18843104904408
10
-274.35625190126427
20
416.45702878729503
42
0.41421356237315649
10
-273.95117773971651
20
417.03661046716979
0
LWPOLYLINE
5
146
100
AcDbEntity
8
0
100
AcDbPolyline
90
8
70
1
43
0.0
10
-313.4720810753131
20
420.95821056358011
42
0.41421356237317813
10
-314.00371210154765
20
421.42443846058438
10
-326.97587810364917
20
420.57419778059256
42
0.41421356237317813
10
-327.44210600065344
20
420.04256675435818
10
-326.59186532066173
20
407.07040075225632
42
0.41421356237309503
10
-326.06023429442746
20
406.60417285525216
10
-313.08806829232566
20
407.45441353524399
42
0.41421356237321555
10
-312.62184039532127
20
407.98604456147842
0
LWPOLYLINE
5
147
100
AcDbEntity
8
0
100
AcDbPolyline
90
8
70
1
43
0.0
10
-325.34593570882737
20
388.06118826456111
42
0.41421356237309503
10
-324.8143046825931
20
387.59496036755701
10
-311.84213868049147
20
388.44520104754872
42
0.41421356237317541
10
-311.37591078348703
20
388.97683207378316
10
-312.22615146347886
20
401.9489980758849
42
0.41421356237305351
10
-312.75778248971341
20
402.41522597288912
10
-325.72994849181504
20
401.56498529289712
42
0.41421356237317813
10
-326.1961763888192
20
401.03335426666291
0
LWPOLYLINE
5
148
100
AcDbEntity
8
0
100
AcDbPolyline
90
8
70
1
43
0.0
10
-294.39111322873367
20
421.10936495600799
42
0.41421356237309365
10
-294.92274425496799
20
421.57559285301227
10
-307.89491025706985
20
420.72535217302027
42
0.41421356237313522
10
-308.36113815407401
20
420.19372114678595
10
-307.51089747408218
20
407.2215551446842
42
0.4142135623730549
10
-306.97926644784792
20
406.75532724767999
10
-294.00710044574606
20
407.60556792767181
42
0.41421356237313661
10
-293.54087254874185
20
408.13719895390619
0
LWPOLYLINE
5
149
100
AcDbEntity
8
0
100
AcDbPolyline
90
8
70
1
43
0.0
10
-272.89540725383836
20
411.07944262656395
42
0.41421356237303358
10
-273.47498893371301
20
411.48451678811165
10
-286.27551487220484
20
409.21591904986082
42
0.41421356237309503
10
-286.6805890337526
20
408.63633736998611
10
-284.41199129550165
20
395.83581143149422
42
0.41421356237310231
10
-283.83240961562694
20
395.43073726994658
10
-271.03188367713517
20
397.69933500819741
42
0.41421356237309503
10
-270.62680951558741
20
398.27891668807212
0
LWPOLYLINE
5
150
100
AcDbEntity
8
0
100
AcDbPolyline
90
9
70
1
43
0.0
10
-235.25340803177059
20
420.04873067018252
42
0.41421356237309997
10
-235.85792201284033
20
420.41555875892607
10
-248.48536892041264
20
417.32564215868587
42
0.41421356237309009
10
-248.85219700915621
20
416.72112817761615
10
-245.76228040891593
20
404.09368127004376
42
0.35700275778616253
10
-245.2562224366846
20
403.71294001631009
10
-242.74165448729181
20
404.31807201182096
10
-232.53031952027388
20
406.81676978154053
42
0.41421356237312068
10
-232.16349143153025
20
407.42128376261013
0
LWPOLYLINE
5
151
100
AcDbEntity
8
0
100
AcDbPolyline
90
9
70
1
43
0.0
10
-196.81921923940141
20
423.27675358444759
42
0.41421356237307488
10
-197.42373322047109
20
423.64358167319108
10
-210.05118012804348
20
420.55366507295099
42
0.41421356237309997
10
-210.41800821678706
20
419.94915109188122
10
-207.32809161654683
20
407.32170418430883
42
0.35700275778621782
10
-206.82203364431541
20
406.9409629305751
10
-204.3074656949226
20
407.54609492608608
10
-194.09613072790472
20
410.04479269580548
42
0.41421356237315077
10
-193.72930263916112
20
410.64930667687526
0
LWPOLYLINE
5
152
100
AcDbEntity
8
0
100
AcDbPolyline
90
9
70
1
43
0.0
10
-250.83818523287232
20
441.56094451701881
10
-250.71653379695417
20
441.60825217276681
42
0.33945426037607801
10
-250.47135714412877
20
442.16545849808853
10
-253.56127374436898
20
454.79290540566092
42
0.41421356237312512
10
-254.1657877254388
20
455.15973349440446
10
-266.79323463301114
20
452.06981689416415
42
0.41421356237303936
10
-267.16006272175463
20
451.46530291309455
10
-264.07014612151437
20
438.83785600552216
42
0.41421356237309503
10
-263.46563214044471
20
438.47102791677861
0
LWPOLYLINE
5
153
100
AcDbEntity
8
0
100
AcDbPolyline
90
9
70
1
43
0.0
10
-196.29748626758243
20
482.26473212220191
42
0.37573511516451602
10
-196.41110898635563
20
482.91335997787496
10
-196.46555557831033
20
482.95157470489301
10
-207.57940983004801
20
489.69562702031681
42
0.4142136452158568
10
-208.26625241273902
20
489.5275577095889
10
-215.01030472816274
20
478.41370345785117
42
0.3733496205749432
10
-214.8999281867147
20
477.76771538197579
10
-203.59220772897442
20
470.92568372019616
42
0.3298287162505259
10
-203.04153858300609
20
471.15087787046423
0
LWPOLYLINE
5
154
100
AcDbEntity
8
0
100
AcDbPolyline
90
8
70
1
43
0.0
10
-239.78132428058413
20
438.55279710012508
42
0.41421356237309503
10
-240.38583826165382
20
438.91962518886862
10
-253.01328516922621
20
435.82970858862836
42
0.41421356237304963
10
-253.3801132579697
20
435.22519460755865
10
-250.29019665772952
20
422.59774769998626
42
0.4142135623731355
10
-249.68568267665975
20
422.23091961124277
10
-237.05823576908753
20
425.32083621148303
42
0.41421356237309009
10
-236.69140768034396
20
425.92535019255274
0
LWPOLYLINE
5
155
100
AcDbEntity
8
0
100
AcDbPolyline
90
8
70
1
43
0.0
10
-214.592242621433
20
413.6576943340969
42
0.41421356237303442
10
-214.22541453268946
20
414.26220831516662
10
-217.31533113292971
20
426.88965522273895
42
0.41421356237301421
10
-217.91984511399934
20
427.25648331148244
10
-230.54729202157174
20
424.16656671124224
42
0.41421356237308515
10
-230.91412011031534
20
423.56205273017252
10
-227.82420351007511
20
410.93460582260025
42
0.4142135623731103
10
-227.21968952900534
20
410.56777773385659
0
LWPOLYLINE
5
156
100
AcDbEntity
8
0
100
AcDbPolyline
90
8
70
1
43
0.0
10
-252.62549539950967
20
410.89479781388332
42
0.41421356237314044
10
-253.23000938057947
20
411.26162590262686
10
-265.85745628815181
20
408.1717093023866
42
0.41421356237309503
10
-266.2242843768953
20
407.56719532131689
10
-263.1343677766551
20
394.9397484137445
42
0.41421356237307488
10
-262.52985379558544
20
394.57292032500101
10
-249.9024068880131
20
397.66283692524121
42
0.41421356237309997
10
-249.53557879926956
20
398.26735090631098
0
LWPOLYLINE
5
157
100
AcDbEntity
8
0
100
AcDbPolyline
90
8
70
1
43
0.0
10
-257.15341164832336
20
429.39886424382593
42
0.41421356237311524
10
-257.75792562939307
20
429.76569233256947
10
-270.38537253696535
20
426.67577573232916
42
0.4142135623731355
10
-270.75220062570895
20
426.0712617512595
10
-267.66228402546869
20
413.44381484368711
42
0.41421356237307488
10
-267.05777004439904
20
413.07698675494356
10
-254.43032313682664
20
416.16690335518376
42
0.41421356237307982
10
-254.0634950480831
20
416.77141733625353
0
LWPOLYLINE
5
158
100
AcDbEntity
8
0
100
AcDbPolyline
90
9
70
1
43
0.0
10
-305.9106124649083
20
387.76640203798684
10
-305.73333683601368
20
387.74611475998461
10
-292.76117083391176
20
388.59635543997655
42
0.41421356237311313
10
-292.29494293690755
20
389.12798646621093
10
-293.14518361689954
20
402.10015246831267
42
0.41421356237307155
10
-293.67681464313387
20
402.56638036531689
10
-306.64898064523572
20
401.71613968532489
42
0.41421356237309503
10
-307.11520854223988
20
401.18450865909068
10
-306.26496786224789
20
388.21234265698882
42
0.31262902647002272
0
LWPOLYLINE
5
159
100
AcDbEntity
8
0
100
AcDbPolyline
90
9
70
1
43
0.0
10
-314.7180106871474
20
439.96742305127555
42
0.31262902647015339
10
-315.07236608448727
20
440.41336367027753
10
-315.24964171338189
20
440.43365094827971
10
-328.22180771548346
20
439.58341026828793
42
0.41421356237309503
10
-328.68803561248768
20
439.0517792420535
10
-327.83779493249597
20
426.0796132399517
42
0.41421356237313933
10
-327.30616390626153
20
425.61338534294748
10
-314.33399790415984
20
426.46362602293925
42
0.41421356237313522
10
-313.86777000715551
20
426.99525704917369
0
LWPOLYLINE
5
160
100
AcDbEntity
8
0
100
AcDbPolyline
90
8
70
1
43
0.0
10
-295.6370428405678
20
440.11857744370332
42
0.41421356237311446
10
-296.16867386680224
20
440.58480534070753
10
-309.14083986890392
20
439.73456466071553
42
0.4142135623731768
10
-309.60706776590825
20
439.20293363448133
10
-308.75682708591648
20
426.23076763237947
42
0.41421356237309365
10
-308.22519605968216
20
425.76453973537519
10
-295.2530300575803
20
426.61478041536725
42
0.41421356237311446
10
-294.78680216057614
20
427.14641144160146
0
LWPOLYLINE
5
161
100
AcDbEntity
8
0
100
AcDbPolyline
90
10
70
1
43
0.0
10
-281.00418605555444
20
376.87760722355961
10
-280.88172583717511
20
376.75554527546922
42
0.19891236737967755
10
-280.50804139149773
20
376.67304349084895
10
-267.7075154530059
20
378.94164122909979
42
0.41421356237311552
10
-267.30244129145819
20
379.52122290897455
10
-269.57103902970914
20
392.32174884746632
42
0.41421356237311191
10
-270.15062070958385
20
392.72682300901408
10
-282.95114664807568
20
390.45822527076319
42
0.41421356237309503
10
-283.35622080962344
20
389.87864359088849
10
-281.08762307137249
20
377.0781176523966
42
0.10990041375601504
0
LWPOLYLINE
5
162
100
AcDbEntity
8
0
100
AcDbPolyline
90
8
70
1
43
0.0
10
-230.72549178295705
20
401.54466424024002
42
0.41421356237305462
10
-231.33000576402668
20
401.91149232898351
10
-243.95745267159913
20
398.82157572874326
42
0.41421356237305462
10
-244.32428076034259
20
398.2170617476736
10
-241.23436416010242
20
385.58961484010121
42
0.41421356237309997
10
-240.6298501790327
20
385.22278675135766
10
-228.00240327146031
20
388.31270335159792
42
0.41421356237309009
10
-227.63557518271676
20
388.91721733266763
0
LWPOLYLINE
5
163
100
AcDbEntity
8
0
100
AcDbPolyline
90
8
70
1
43
0.0
10
-198.62404697671838
20
428.54885912574798
42
0.4142135623731355
10
-198.25721888797472
20
429.15337310681775
10
-201.34713548821495
20
441.78082001439014
42
0.41421356237309997
10
-201.95164946928469
20
442.14764810313369
10
-214.579096376857
20
439.05773150289349
42
0.41421356237309997
10
-214.94592446560057
20
438.45321752182372
10
-211.85600786536031
20
425.82577061425138
42
0.41421356237309503
10
-211.25149388429062
20
425.45894252550789
0
LWPOLYLINE
5
164
100
AcDbEntity
8
0
100
AcDbPolyline
90
9
70
1
43
0.0
10
-241.91837376637261
20
445.02966946061912
10
-241.79672236391878
20
445.0769771033535
10
-230.39927448639671
20
451.32983112642432
42
0.41421356237306856
10
-230.20140547538114
20
452.00868885630086
10
-236.45425949845202
20
463.4061367338229
42
0.41421356237304036
10
-237.13311722832842
20
463.60400574483845
10
-248.53056510585051
20
457.35115172176762
42
0.41421356237310503
10
-248.72843411686608
20
456.67229399189102
10
-242.4755800937952
20
445.27484611436904
42
0.33945427784924098
0
LWPOLYLINE
5
165
100
AcDbEntity
8
0
100
AcDbPolyline
90
10
70
1
43
0.0
10
-222.57590810680514
20
457.06616067714486
10
-213.18517664781612
20
466.05583039062077
42
0.41421356237311069
10
-213.16975119606559
20
466.76276889725409
10
-222.1594209095415
20
476.15350035624294
42
0.35927488775233063
10
-222.79144492210162
20
476.22803490808155
10
-222.86635941617482
20
476.16892580799345
10
-232.25709087516378
20
467.1792560945176
42
0.41421356237309437
10
-232.27251632691429
20
466.47231758788428
10
-223.28284661343841
20
457.08158612889542
42
0.33354641959406334
10
-222.69052916254569
20
456.98397329329623
0
LWPOLYLINE
5
166
100
AcDbEntity
8
0
100
AcDbPolyline
90
8
70
1
43
0.0
10
-221.84324738174331
20
445.39372165268151
42
0.41421356237306994
10
-222.44776136281297
20
445.760549741425
10
-235.07520827038536
20
442.67063314118479
42
0.41421356237309009
10
-235.44203635912893
20
442.06611916011514
10
-232.35211975888865
20
429.43867225254274
42
0.41421356237309997
10
-231.74760577781893
20
429.0718441637992
10
-219.1201588702466
20
432.1617607640394
42
0.41421356237306989
10
-218.75333078150305
20
432.76627474510911
0
LWPOLYLINE
5
167
100
AcDbEntity
8
0
100
AcDbPolyline
90
8
70
1
43
0.0
10
-209.69749828387594
20
395.75814188522406
10
-212.78741488411609
20
408.3855887927964
42
0.4142135623730645
10
-213.39192886518578
20
408.75241688153994
10
-226.01937577275817
20
405.66250028129969
42
0.41421356237309503
10
-226.38620386150177
20
405.05798630022991
10
-223.2962872612616
20
392.43053939265764
42
0.41421356237314044
10
-222.6917732801918
20
392.06371130391409
10
-210.06432637261946
20
395.1536279041544
42
0.41421356237307477
0
LWPOLYLINE
5
168
100
AcDbEntity
8
0
100
AcDbPolyline
90
8
70
1
43
0.0
10
-248.09757915069625
20
392.39073138394076
42
0.41421356237305956
10
-248.70209313176591
20
392.75755947268431
10
-261.32954003933821
20
389.66764287244411
42
0.41421356237315032
10
-261.69636812808176
20
389.06312889137433
10
-258.60645152784156
20
376.435681983802
42
0.41421356237309503
10
-258.00193754677184
20
376.06885389505851
10
-245.37449063919954
20
379.15877049529865
42
0.41421356237309997
10
-245.00766255045596
20
379.76328447636843
0
LWPOLYLINE
5
169
100
AcDbEntity
8
0
100
AcDbPolyline
90
8
70
1
43
0.0
10
-276.2197754779674
20
429.83713640566151
42
0.41421356237309503
10
-276.79935715784217
20
430.24221056720927
10
-289.599883096334
20
427.97361282895844
42
0.41421356237309137
10
-290.00495725788176
20
427.39403114908373
10
-287.73635951963092
20
414.59350521059184
42
0.41421356237309503
10
-287.15677783975616
20
414.18843104904408
10
-274.35625190126427
20
416.45702878729503
42
0.41421356237305407
10
-273.95117773971657
20
417.03661046716974
0
LWPOLYLINE
5
170
100
AcDbEntity
8
0
100
AcDbPolyline
90
8
70
1
43
0.0
10
-313.4720810753131
20
420.95821056358011
42
0.41421356237315732
10
-314.00371210154759
20
421.42443846058438
10
-326.97587810364905
20
420.57419778059256
42
0.41421356237313661
10
-327.44210600065344
20
420.04256675435818
10
-326.59186532066173
20
407.07040075225643
42
0.41421356237313661
10
-326.06023429442729
20
406.60417285525216
10
-313.0880682923256
20
407.45441353524399
42
0.41421356237309365
10
-312.62184039532133
20
407.98604456147837
0
LWPOLYLINE
5
171
100
AcDbEntity
8
0
100
AcDbPolyline
90
8
70
1
43
0.0
10
-325.34593570882737
20
388.06118826456111
42
0.41421356237313661
10
-324.8143046825931
20
387.59496036755695
10
-311.84213868049147
20
388.44520104754872
42
0.4142135623731768
10
-311.37591078348703
20
388.97683207378316
10
-312.22615146347886
20
401.9489980758849
42
0.41421356237313661
10
-312.75778248971341
20
402.41522597288912
10
-325.72994849181509
20
401.56498529289729
42
0.41421356237310047
10
-326.1961763888192
20
401.03335426666285
0
ENDSEC
0
SECTION
2
OBJECTS
0
DICTIONARY
5
C
100
AcDbDictionary
3
ACAD_GROUP
350
D
3
ACAD_MLINESTYLE
350
17
0
DICTIONARY
5
D
100
AcDbDictionary
0
DICTIONARY
5
1A
330
C
100
AcDbDictionary
0
DICTIONARY
5
17
100
AcDbDictionary
0
ENDSEC
0
EOF
